<svg xmlns="http://www.w3.org/2000/svg" xmlns:xlink="http://www.w3.org/1999/xlink" width="500" zoomAndPan="magnify" viewBox="0 0 375 374.999991" height="500" preserveAspectRatio="xMidYMid meet" version="1.0"><defs><filter x="0%" y="0%" width="100%" height="100%" id="1a632d35b2"><feColorMatrix values="0 0 0 0 1 0 0 0 0 1 0 0 0 0 1 0 0 0 1 0" color-interpolation-filters="sRGB"/></filter><mask id="8340dc3f84"><g filter="url(#1a632d35b2)"><rect x="-37.5" width="450" fill="#000000" y="-37.499999" height="449.999989" fill-opacity="0.6588"/></g></mask><clipPath id="cf81f2a06c"><path d="M 0.078125 6 L 55 6 L 55 26 L 0.078125 26 Z M 0.078125 6 " clip-rule="nonzero"/></clipPath><clipPath id="8a6237db99"><path d="M 3.617188 0 L 55.207031 9.738281 L 51.03125 31.847656 L -0.558594 22.109375 Z M 3.617188 0 " clip-rule="nonzero"/></clipPath><clipPath id="22145cb8b1"><path d="M 3.617188 0 L 55.207031 9.738281 L 51.03125 31.847656 L -0.558594 22.109375 Z M 3.617188 0 " clip-rule="nonzero"/></clipPath><clipPath id="4a0e062a29"><rect x="0" width="56" y="0" height="32"/></clipPath><clipPath id="40dfc1c8ef"><path d="M 60.5 174.941406 L 119 174.941406 L 119 247.691406 L 60.5 247.691406 Z M 60.5 174.941406 " clip-rule="nonzero"/></clipPath><clipPath id="c353f3843e"><path d="M 253.835938 203 L 289 203 L 289 230 L 253.835938 230 Z M 253.835938 203 " clip-rule="nonzero"/></clipPath><clipPath id="65a8e0e8f8"><path d="M 274 173 L 312 173 L 312 245.746094 L 274 245.746094 Z M 274 173 " clip-rule="nonzero"/></clipPath><clipPath id="1f477153dd"><path d="M 211.308594 173.003906 L 281.058594 173.003906 L 281.058594 245.738281 L 211.308594 245.738281 Z M 211.308594 173.003906 " clip-rule="nonzero"/></clipPath><clipPath id="51499cfe65"><path d="M 122.761719 173.652344 L 139.261719 173.652344 L 139.261719 246.402344 L 122.761719 246.402344 Z M 122.761719 173.652344 " clip-rule="nonzero"/></clipPath><clipPath id="e28c4ad0c8"><path d="M 122.761719 173.652344 L 139.261719 173.652344 L 139.261719 191 L 122.761719 191 Z M 122.761719 173.652344 " clip-rule="nonzero"/></clipPath><clipPath id="f43586de46"><path d="M 122.761719 173.652344 L 139.261719 173.652344 L 139.261719 183 L 122.761719 183 Z M 122.761719 173.652344 " clip-rule="nonzero"/></clipPath><clipPath id="04de1bb7a4"><path d="M 122.761719 229 L 139.261719 229 L 139.261719 246.402344 L 122.761719 246.402344 Z M 122.761719 229 " clip-rule="nonzero"/></clipPath><clipPath id="b030283675"><path d="M 122.761719 238 L 139.261719 238 L 139.261719 246.402344 L 122.761719 246.402344 Z M 122.761719 238 " clip-rule="nonzero"/></clipPath><clipPath id="689adef35d"><path d="M 146.742188 173.78125 L 213.851562 173.78125 L 213.851562 219 L 146.742188 219 Z M 146.742188 173.78125 " clip-rule="nonzero"/></clipPath><clipPath id="af023bb054"><path d="M 141.972656 198.722656 L 209 198.722656 L 209 244.277344 L 141.972656 244.277344 Z M 141.972656 198.722656 " clip-rule="nonzero"/></clipPath><clipPath id="9585aa8fe0"><path d="M 231.300781 150 L 247 150 L 247 171 L 231.300781 171 Z M 231.300781 150 " clip-rule="nonzero"/></clipPath><clipPath id="fa89af9c76"><path d="M 239 171 L 274 171 L 274 171.875 L 239 171.875 Z M 239 171 " clip-rule="nonzero"/></clipPath><clipPath id="b735a2024e"><path d="M 273 171 L 275 171 L 275 171.875 L 273 171.875 Z M 273 171 " clip-rule="nonzero"/></clipPath><clipPath id="f09fe41235"><path d="M 238 150 L 295 150 L 295 171.875 L 238 171.875 Z M 238 150 " clip-rule="nonzero"/></clipPath></defs><g mask="url(#8340dc3f84)"><g transform="matrix(1, 0, 0, 1, 310, 336)"><g clip-path="url(#4a0e062a29)"><g clip-path="url(#cf81f2a06c)"><g clip-path="url(#8a6237db99)"><g clip-path="url(#22145cb8b1)"><path fill="#ffffff" d="M 11.796875 24.265625 C 10.589844 23.832031 9.6875 22.886719 9.503906 21.863281 C 9.386719 21.195312 9.742188 20.429688 10.136719 20.503906 C 10.300781 20.535156 10.363281 20.71875 10.351562 21.121094 C 10.335938 21.519531 10.53125 21.894531 10.984375 22.34375 C 11.570312 22.921875 12.117188 23.152344 13.308594 23.324219 C 14.382812 23.480469 15.496094 23.464844 16.839844 23.28125 C 18.046875 23.117188 18.824219 22.9375 21.667969 22.15625 C 24.605469 21.351562 25.441406 21.167969 26.5625 21.082031 C 27.640625 20.996094 28.339844 21.152344 28.488281 21.511719 C 28.566406 21.691406 28.449219 22.039062 28.25 22.226562 C 27.972656 22.484375 27.78125 23.164062 27.886719 23.515625 C 27.929688 23.667969 28 23.792969 28.042969 23.800781 C 28.085938 23.808594 28.3125 23.761719 28.550781 23.691406 C 30.015625 23.261719 31.773438 21.277344 32.082031 19.710938 C 32.203125 19.089844 32.164062 18.761719 31.867188 17.957031 C 31.738281 17.609375 31.59375 17.160156 31.546875 16.957031 C 31.5 16.753906 31.449219 16.582031 31.433594 16.582031 C 31.421875 16.578125 31.175781 16.847656 30.886719 17.179688 C 30.117188 18.066406 29.46875 18.648438 28.535156 19.285156 C 26.40625 20.738281 24.707031 20.527344 24.402344 18.777344 C 24.304688 18.226562 24.617188 16.671875 24.988281 15.84375 C 25.347656 15.054688 25.929688 14.039062 26.34375 13.492188 C 27.117188 12.46875 28.28125 11.511719 29.058594 11.265625 C 30.117188 10.929688 30.871094 11.746094 30.636719 12.984375 C 30.34375 14.546875 28.960938 16.242188 27.71875 16.5625 C 27.179688 16.699219 26.78125 16.636719 26.421875 16.355469 C 26.269531 16.238281 26.132812 16.140625 26.117188 16.136719 C 26.046875 16.125 25.683594 17.171875 25.582031 17.683594 C 25.457031 18.308594 25.539062 18.992188 25.742188 19.042969 C 26.566406 19.257812 27.863281 18.585938 29.3125 17.195312 C 30.085938 16.449219 30.382812 16.101562 32.625 13.277344 C 33.0625 12.726562 33.613281 12.203125 33.824219 12.136719 C 34.097656 12.046875 34.433594 12.160156 34.527344 12.367188 C 34.664062 12.675781 34.597656 12.808594 33.96875 13.464844 C 33.296875 14.167969 32.976562 14.65625 32.746094 15.335938 C 32.492188 16.085938 32.527344 16.496094 32.945312 17.613281 C 33.089844 18 33.242188 18.542969 33.285156 18.816406 C 33.640625 21.148438 30.847656 24.753906 28.40625 25.105469 C 27.5 25.234375 26.902344 24.871094 26.707031 24.070312 C 26.605469 23.660156 26.734375 22.863281 26.964844 22.511719 C 27.113281 22.285156 27.117188 22.265625 26.992188 22.238281 C 26.492188 22.144531 24.894531 22.480469 21.761719 23.339844 C 19.007812 24.09375 18.054688 24.308594 16.652344 24.496094 C 14.890625 24.730469 12.820312 24.632812 11.796875 24.265625 Z M 27.632812 15.453125 C 27.765625 15.394531 28.007812 15.226562 28.167969 15.085938 C 29.054688 14.3125 29.910156 12.441406 29.425781 12.351562 C 29.234375 12.3125 28.148438 13.113281 27.695312 13.621094 C 27.0625 14.335938 26.566406 15.109375 26.648438 15.261719 C 26.824219 15.578125 27.207031 15.65625 27.632812 15.453125 Z M 2.390625 21.398438 C 1.632812 20.960938 1.0625 20.003906 0.910156 18.910156 C 0.578125 16.488281 2.972656 12.765625 5.679688 11.5 C 6.425781 11.152344 6.929688 11.070312 7.589844 11.195312 C 8.40625 11.351562 8.863281 11.785156 9.007812 12.546875 C 9.132812 13.203125 8.738281 14.265625 7.953125 15.386719 C 7.742188 15.683594 7.589844 15.929688 7.609375 15.933594 C 7.625 15.9375 8.019531 15.742188 8.484375 15.5 C 9.199219 15.128906 10.585938 14.507812 11.511719 14.148438 C 11.691406 14.082031 11.910156 13.835938 12.3125 13.265625 C 14.6875 9.878906 16.925781 7.414062 18.058594 6.929688 C 18.542969 6.722656 18.859375 6.753906 19.042969 7.027344 C 19.21875 7.289062 19.160156 7.414062 18.226562 8.8125 C 17.148438 10.433594 15.898438 12.6875 15.804688 13.179688 C 15.785156 13.285156 15.886719 13.324219 16.40625 13.421875 C 17.410156 13.613281 17.902344 13.972656 17.8125 14.453125 C 17.761719 14.71875 17.59375 14.785156 17.316406 14.65625 C 16.847656 14.445312 15.386719 14.359375 15.277344 14.539062 C 15.105469 14.820312 14.449219 17.34375 14.339844 18.125 C 14.21875 19.027344 14.195312 19.90625 14.292969 19.921875 C 14.359375 19.933594 14.363281 19.929688 15.308594 18.347656 C 16.136719 16.960938 17.332031 15.335938 17.640625 15.175781 C 17.964844 15.003906 18.335938 15.101562 18.488281 15.398438 C 18.609375 15.628906 18.601562 15.714844 18.398438 16.6875 C 18.105469 18.101562 18.03125 18.589844 18.125 18.515625 C 18.171875 18.484375 18.53125 17.921875 18.933594 17.269531 C 20.339844 14.972656 20.988281 14.125 21.367188 14.078125 C 21.609375 14.046875 21.953125 14.296875 21.964844 14.507812 C 21.96875 14.609375 21.871094 15.027344 21.742188 15.441406 C 21.386719 16.601562 20.980469 18.425781 21.0625 18.5 C 21.144531 18.578125 21.4375 18.09375 22.136719 16.710938 C 23.347656 14.328125 24.535156 12.285156 25.011719 11.777344 C 25.398438 11.363281 25.675781 11.460938 25.578125 11.976562 C 25.445312 12.683594 23.5 16.890625 22.625 18.367188 C 22.140625 19.183594 21.632812 19.835938 21.285156 20.082031 C 21.027344 20.265625 20.921875 20.292969 20.648438 20.238281 C 20.046875 20.125 19.886719 19.570312 20.058594 18.175781 L 20.152344 17.394531 L 19.621094 18.25 C 18.628906 19.839844 18.144531 20.328125 17.652344 20.238281 C 17.121094 20.136719 16.894531 19.445312 17.015625 18.28125 C 17.054688 17.894531 17.042969 17.738281 16.984375 17.8125 C 16.933594 17.871094 16.53125 18.523438 16.089844 19.261719 C 15.648438 19.996094 15.191406 20.707031 15.074219 20.835938 C 14.492188 21.476562 13.894531 21.503906 13.464844 20.910156 C 13.171875 20.503906 13.0625 19.917969 13.105469 18.996094 C 13.136719 18.320312 13.636719 15.933594 13.921875 15.121094 C 14.015625 14.855469 14.082031 14.621094 14.070312 14.605469 C 14.058594 14.585938 13.675781 14.675781 13.222656 14.800781 L 12.394531 15.03125 L 11.121094 16.714844 C 10.417969 17.644531 9.628906 18.632812 9.363281 18.910156 C 7.96875 20.378906 6.035156 21.558594 4.679688 21.765625 C 4.097656 21.851562 2.824219 21.648438 2.390625 21.398438 Z M 4.539062 20.644531 C 5.71875 20.480469 7.175781 19.613281 8.421875 18.332031 C 9.117188 17.617188 10.476562 15.929688 10.421875 15.847656 C 10.359375 15.757812 8.613281 16.625 7.460938 17.316406 C 7.183594 17.480469 6.464844 17.929688 5.863281 18.3125 C 4.902344 18.921875 4.734375 19 4.5 18.957031 C 4.027344 18.867188 3.882812 18.414062 4.199219 18.007812 C 4.300781 17.878906 4.628906 17.511719 4.929688 17.191406 C 5.773438 16.296875 6.523438 15.445312 6.886719 14.96875 C 7.65625 13.960938 8.039062 12.980469 7.839844 12.535156 C 7.757812 12.355469 7.703125 12.328125 7.296875 12.28125 C 6.945312 12.238281 6.746094 12.273438 6.382812 12.425781 C 4.695312 13.148438 2.925781 15.171875 2.242188 17.15625 C 1.910156 18.125 1.980469 19.160156 2.433594 19.878906 C 2.8125 20.484375 3.613281 20.777344 4.539062 20.644531 Z M 14.46875 13.34375 C 14.527344 13.308594 14.714844 12.941406 14.890625 12.535156 C 15.066406 12.125 15.421875 11.402344 15.675781 10.929688 C 15.933594 10.453125 16.105469 10.089844 16.066406 10.121094 C 15.847656 10.28125 13.457031 13.386719 13.425781 13.546875 C 13.417969 13.597656 14.367188 13.414062 14.46875 13.34375 Z M 34.59375 20.769531 C 34.457031 20.570312 34.5625 20.386719 34.894531 20.246094 C 35.628906 19.933594 38.902344 19.441406 41.421875 19.265625 C 44.132812 19.074219 45.835938 19.121094 47.515625 19.4375 C 49.441406 19.796875 50.734375 20.363281 50.976562 20.953125 C 51.074219 21.1875 51.070312 21.191406 50.863281 21.308594 C 50.71875 21.386719 50.585938 21.394531 50.460938 21.339844 C 50.074219 21.171875 47.203125 20.511719 46.457031 20.417969 C 44.320312 20.152344 41.40625 20.226562 37.984375 20.625 C 36.296875 20.824219 34.972656 20.9375 34.785156 20.902344 C 34.71875 20.890625 34.632812 20.832031 34.59375 20.769531 Z M 35 18.53125 C 34.132812 17.957031 34.042969 16.390625 34.78125 14.796875 C 35.398438 13.464844 36.519531 11.921875 36.996094 11.746094 C 37.128906 11.699219 37.414062 11.511719 37.628906 11.332031 C 38.148438 10.902344 38.964844 10.660156 39.40625 10.804688 C 39.800781 10.9375 40.132812 11.28125 40.28125 11.710938 C 40.386719 12.023438 40.378906 12.148438 40.207031 13.0625 C 40.023438 14.019531 39.992188 14.105469 39.566406 14.859375 C 38.523438 16.703125 37.011719 18.347656 36.105469 18.621094 C 35.765625 18.722656 35.222656 18.679688 35 18.53125 Z M 36.113281 17.324219 C 36.964844 16.703125 38.265625 14.984375 38.804688 13.769531 C 39.0625 13.179688 39.238281 12.277344 39.132812 12.054688 C 39.058594 11.894531 39.046875 11.890625 38.710938 12.035156 C 37.988281 12.339844 37.144531 13.007812 36.71875 13.605469 C 36.070312 14.507812 35.628906 15.449219 35.484375 16.222656 C 35.34375 16.96875 35.40625 17.492188 35.644531 17.535156 C 35.722656 17.550781 35.933594 17.453125 36.113281 17.324219 Z M 39.195312 18.3125 C 39.144531 18.28125 39.074219 18.144531 39.03125 18.007812 C 38.949219 17.722656 39.101562 17.21875 39.644531 16.042969 C 39.921875 15.441406 40.972656 13.019531 41.636719 11.449219 C 41.859375 10.925781 42.058594 10.722656 42.304688 10.769531 C 42.8125 10.871094 42.789062 11.261719 42.175781 12.8125 C 42.058594 13.109375 41.96875 13.355469 41.976562 13.355469 C 41.984375 13.355469 42.308594 12.996094 42.695312 12.550781 C 43.183594 11.992188 43.613281 11.589844 44.089844 11.257812 C 44.867188 10.710938 45.136719 10.648438 45.53125 10.9375 C 45.890625 11.203125 45.949219 11.738281 45.699219 12.472656 C 45.621094 12.710938 45.5625 12.910156 45.570312 12.910156 C 45.578125 12.914062 45.78125 12.6875 46.019531 12.414062 C 47.03125 11.25 47.941406 10.628906 48.488281 10.734375 C 48.785156 10.789062 49.113281 11.097656 49.1875 11.386719 C 49.351562 12.015625 49.160156 12.496094 47.835938 14.816406 C 47.402344 15.566406 47.054688 16.214844 47.0625 16.253906 C 47.082031 16.402344 48.925781 14.460938 49.53125 13.648438 C 51.769531 10.65625 54.167969 9.546875 54.675781 11.277344 C 54.761719 11.578125 54.757812 11.761719 54.644531 12.335938 C 54.292969 14.109375 52.625 16 51.121094 16.335938 C 50.667969 16.433594 49.984375 16.308594 49.753906 16.082031 C 49.546875 15.882812 49.535156 15.894531 49.367188 16.4375 C 49.261719 16.765625 49.238281 17.332031 49.320312 17.453125 C 49.40625 17.582031 49.996094 17.589844 50.566406 17.46875 C 50.902344 17.398438 51.546875 17.210938 52 17.054688 C 52.960938 16.726562 53.175781 16.695312 53.277344 16.878906 C 53.382812 17.074219 53.203125 17.308594 52.648438 17.6875 C 51.625 18.386719 50.347656 18.839844 49.566406 18.773438 C 48.664062 18.699219 48.09375 18.089844 48.078125 17.1875 L 48.074219 16.890625 L 47.382812 17.496094 C 46.636719 18.148438 46.273438 18.335938 45.898438 18.269531 C 45.078125 18.113281 45.464844 16.785156 47.164062 13.929688 C 48.03125 12.472656 48.308594 11.929688 48.238281 11.828125 C 48.167969 11.726562 47.496094 12.28125 46.992188 12.859375 C 46.746094 13.140625 45.941406 14.183594 45.207031 15.167969 C 44.472656 16.15625 43.785156 17.027344 43.679688 17.105469 C 43.441406 17.285156 43.121094 17.234375 42.914062 16.988281 C 42.6875 16.71875 42.808594 16.324219 43.730469 14.328125 C 44.644531 12.347656 44.742188 12.113281 44.660156 12.097656 C 44.5625 12.078125 43.917969 12.699219 43.367188 13.347656 C 42.792969 14.015625 41.902344 15.296875 41.242188 16.402344 C 40.605469 17.464844 40.03125 18.242188 39.800781 18.347656 C 39.597656 18.441406 39.371094 18.425781 39.195312 18.3125 Z M 50.847656 15.238281 C 51.835938 15.027344 53.078125 13.597656 53.421875 12.277344 L 53.578125 11.679688 L 53.332031 11.753906 C 52.824219 11.910156 51.855469 12.714844 50.992188 13.691406 C 50.457031 14.300781 50.417969 14.367188 50.390625 14.726562 C 50.34375 15.308594 50.375 15.339844 50.847656 15.238281 Z M 50.847656 15.238281 " fill-opacity="1" fill-rule="nonzero"/></g></g></g></g></g></g><g clip-path="url(#40dfc1c8ef)"><path fill="#29428d" d="M 106.132812 209.421875 L 106.105469 209.414062 C 103.976562 208.625 101.738281 208.226562 99.457031 208.226562 L 80.476562 208.226562 C 78.089844 208.226562 75.753906 207.558594 73.71875 206.296875 C 71.988281 205.226562 70.511719 203.734375 69.4375 201.988281 C 68.585938 200.609375 68.003906 199.097656 67.710938 197.5 L 67.710938 181.996094 L 92.476562 181.996094 C 99.636719 181.996094 105.457031 187.878906 105.457031 195.113281 C 105.457031 197.480469 104.820312 199.804688 103.609375 201.832031 L 103.449219 202.105469 L 103.757812 202.164062 C 105.269531 202.449219 106.746094 202.917969 108.148438 203.554688 C 108.785156 203.84375 109.40625 204.171875 110 204.527344 L 110.199219 204.644531 L 110.304688 204.441406 C 111.84375 201.550781 112.65625 198.289062 112.65625 195 C 112.65625 183.9375 103.75 174.941406 92.804688 174.941406 L 60.511719 174.941406 L 60.511719 195 C 60.511719 200.042969 62.390625 204.875 65.800781 208.597656 C 66.285156 209.128906 66.808594 209.640625 67.351562 210.117188 C 67.574219 210.316406 67.796875 210.503906 68.011719 210.675781 C 69.679688 212.023438 71.535156 213.085938 73.527344 213.832031 C 75.71875 214.648438 78.019531 215.0625 80.367188 215.0625 L 99.351562 215.0625 C 100.132812 215.0625 100.910156 215.136719 101.664062 215.28125 C 107.65625 216.410156 112.003906 221.695312 112.003906 227.851562 C 112.003906 231.25 110.683594 234.457031 108.289062 236.878906 C 105.890625 239.304688 102.71875 240.636719 99.351562 240.636719 L 67.710938 240.636719 L 67.710938 217.589844 L 67.59375 217.527344 C 66.113281 216.753906 64.742188 215.792969 63.511719 214.679688 C 62.558594 213.820312 61.683594 212.855469 60.90625 211.808594 L 60.511719 211.28125 L 60.511719 247.691406 L 99.457031 247.691406 C 104.652344 247.691406 109.550781 245.628906 113.25 241.894531 C 116.949219 238.15625 118.984375 233.207031 118.984375 227.957031 C 118.984375 219.722656 113.824219 212.277344 106.132812 209.421875 Z M 106.132812 209.421875 " fill-opacity="1" fill-rule="nonzero"/></g><path fill="#29428d" d="M 73.167969 188.167969 L 73.167969 195 C 73.167969 195.589844 73.246094 196.171875 73.394531 196.742188 C 74.175781 199.738281 76.867188 201.835938 79.929688 201.835938 L 92.804688 201.835938 C 94.601562 201.835938 96.296875 201.125 97.582031 199.828125 C 98.863281 198.53125 99.566406 196.816406 99.566406 195 C 99.566406 191.230469 96.53125 188.167969 92.804688 188.167969 Z M 73.167969 188.167969 " fill-opacity="1" fill-rule="nonzero"/><path fill="#29428d" d="M 105.675781 228.179688 C 105.675781 224.347656 102.59375 221.234375 98.804688 221.234375 L 73.386719 221.234375 L 73.386719 235.125 L 98.804688 235.125 C 100.632812 235.125 102.355469 234.398438 103.65625 233.082031 C 104.960938 231.769531 105.675781 230.027344 105.675781 228.179688 Z M 105.675781 228.179688 " fill-opacity="1" fill-rule="nonzero"/><g clip-path="url(#c353f3843e)"><path fill="#38b6ff" d="M 254.472656 225.40625 L 260.625 229.128906 C 261.109375 229.425781 261.742188 229.269531 262.035156 228.78125 L 271.082031 213.757812 C 271.265625 213.449219 271.597656 213.257812 271.957031 213.257812 L 287.191406 213.257812 C 287.980469 213.257812 288.472656 212.402344 288.078125 211.714844 L 283.933594 204.511719 C 283.75 204.191406 283.410156 203.996094 283.042969 203.996094 L 266.746094 203.996094 C 266.386719 203.996094 266.054688 204.183594 265.867188 204.492188 L 254.125 223.992188 C 253.832031 224.480469 253.988281 225.113281 254.472656 225.40625 " fill-opacity="1" fill-rule="nonzero"/></g><g clip-path="url(#65a8e0e8f8)"><path fill="#38b6ff" d="M 308.355469 213.6875 L 285.351562 173.722656 C 284.957031 173.039062 283.976562 173.035156 283.578125 173.714844 L 275.089844 188.207031 C 274.902344 188.527344 274.898438 188.925781 275.085938 189.246094 L 279.222656 196.402344 C 279.617188 197.085938 280.597656 197.089844 280.996094 196.410156 L 283.507812 192.121094 C 283.90625 191.441406 284.886719 191.445312 285.28125 192.128906 L 300.371094 218.34375 L 300.390625 218.378906 C 304.257812 224.945312 302.625 233.382812 296.59375 238.003906 C 296.140625 238.347656 296.054688 238.996094 296.398438 239.445312 L 300.757812 245.171875 C 301.105469 245.625 301.75 245.710938 302.199219 245.367188 C 311.9375 237.90625 314.585938 224.289062 308.355469 213.6875 " fill-opacity="1" fill-rule="nonzero"/></g><g clip-path="url(#1f477153dd)"><path fill="#29428d" d="M 281.058594 245.738281 L 247.585938 245.738281 C 227.550781 245.738281 211.308594 229.457031 211.308594 209.371094 C 211.308594 199.328125 215.371094 190.234375 221.9375 183.65625 C 228.5 177.074219 237.566406 173.003906 247.585938 173.003906 L 278.375 173.003906 L 267.378906 184.027344 L 250.550781 184.027344 C 243.570312 184.027344 237.25 186.863281 232.675781 191.449219 C 228.101562 196.035156 225.269531 202.371094 225.269531 209.371094 C 225.269531 223.367188 236.589844 234.714844 250.550781 234.714844 L 270.0625 234.714844 L 281.058594 245.738281 " fill-opacity="1" fill-rule="nonzero"/></g><g clip-path="url(#51499cfe65)"><path fill="#38b6ff" d="M 122.75 246.386719 L 122.75 190.414062 L 139.273438 173.667969 L 139.273438 229.636719 L 122.75 246.386719 " fill-opacity="1" fill-rule="nonzero"/></g><g clip-path="url(#e28c4ad0c8)"><path fill="#29428d" d="M 122.75 190.414062 L 122.75 173.667969 L 139.273438 173.667969 L 122.75 173.667969 L 131.011719 182.042969 L 122.75 190.414062 " fill-opacity="1" fill-rule="nonzero"/></g><g clip-path="url(#f43586de46)"><path fill="#29428d" d="M 131.011719 182.042969 L 122.75 173.667969 L 139.273438 173.667969 L 131.011719 182.042969 " fill-opacity="1" fill-rule="nonzero"/></g><g clip-path="url(#04de1bb7a4)"><path fill="#29428d" d="M 139.273438 246.386719 L 122.75 246.386719 L 139.273438 246.386719 L 131.011719 238.011719 L 139.273438 229.636719 L 139.273438 246.386719 " fill-opacity="1" fill-rule="nonzero"/></g><g clip-path="url(#b030283675)"><path fill="#29428d" d="M 139.273438 246.386719 L 122.75 246.386719 L 131.011719 238.011719 L 139.273438 246.386719 " fill-opacity="1" fill-rule="nonzero"/></g><g clip-path="url(#689adef35d)"><path fill="#29428d" d="M 196.789062 218.625 C 195.070312 213.234375 189.941406 209.632812 184.25 209.632812 L 169.578125 209.632812 C 168.6875 209.632812 167.8125 209.542969 166.972656 209.378906 C 162.0625 208.410156 158.125 204.765625 156.761719 200.03125 C 156.425781 198.871094 156.246094 197.648438 156.246094 196.378906 C 156.246094 189.058594 162.214844 183.125 169.578125 183.125 L 198.851562 183.125 L 192.441406 195.402344 L 213.851562 173.78125 L 168.980469 173.78125 C 156.753906 173.78125 146.84375 183.632812 146.84375 195.785156 L 146.84375 196.976562 C 146.84375 198.011719 146.917969 199.035156 147.058594 200.03125 C 147.539062 203.464844 148.8125 206.644531 150.695312 209.378906 C 154.578125 215.023438 161.039062 218.777344 168.390625 218.96875 C 168.585938 218.976562 168.78125 218.980469 168.980469 218.980469 L 196.894531 218.980469 C 196.859375 218.859375 196.824219 218.742188 196.789062 218.625 " fill-opacity="1" fill-rule="nonzero"/></g><g clip-path="url(#af023bb054)"><path fill="#38b6ff" d="M 208.765625 217.789062 C 208.285156 214.359375 207.007812 211.179688 205.128906 208.445312 C 201.242188 202.796875 194.785156 199.042969 187.429688 198.851562 C 187.234375 198.847656 187.039062 198.84375 186.84375 198.84375 L 158.8125 198.84375 C 158.847656 198.960938 158.882812 199.078125 158.917969 199.195312 C 160.640625 204.589844 165.765625 208.1875 171.457031 208.1875 L 186.246094 208.1875 C 187.136719 208.1875 188.007812 208.277344 188.851562 208.445312 C 193.761719 209.410156 197.699219 213.058594 199.058594 217.789062 C 199.394531 218.953125 199.578125 220.175781 199.578125 221.445312 C 199.578125 228.761719 193.609375 234.699219 186.246094 234.699219 L 157.089844 234.699219 L 163.378906 222.652344 L 151.457031 234.699219 L 151.371094 234.699219 L 141.972656 244.042969 L 142.203125 244.042969 L 141.972656 244.277344 L 142.667969 244.042969 L 186.84375 244.042969 C 199.066406 244.042969 208.980469 234.191406 208.980469 222.039062 L 208.980469 220.847656 C 208.980469 219.808594 208.90625 218.789062 208.765625 217.789062 " fill-opacity="1" fill-rule="nonzero"/></g><g clip-path="url(#9585aa8fe0)"><path fill="#29428d" d="M 239.371094 170.3125 C 235.546875 170.3125 232.566406 167.886719 231.300781 163.75 L 234.675781 162.539062 C 235.992188 166.253906 238.476562 166.546875 240.015625 166.375 C 242.101562 166.152344 242.449219 164.742188 242.5 164.148438 C 242.621094 162.808594 242.324219 160.382812 237.210938 159.8125 L 240.015625 154.367188 L 233.585938 154.367188 L 233.585938 150.476562 L 246.421875 150.476562 L 242.722656 157.660156 C 243.664062 158.230469 244.484375 158.972656 245.105469 159.839844 C 246.097656 161.226562 246.546875 162.882812 246.398438 164.492188 C 246.273438 165.953125 245.652344 167.292969 244.660156 168.308594 C 243.316406 169.644531 241.503906 170.3125 239.371094 170.3125 " fill-opacity="1" fill-rule="nonzero"/></g><path fill="#29428d" d="M 255.285156 160.753906 C 253.449219 160.753906 252.429688 161.644531 252.429688 163.675781 C 252.429688 165.359375 253.546875 166.425781 255.261719 166.425781 C 257.023438 166.425781 258.015625 165.484375 258.042969 163.652344 C 258.089844 161.917969 257.074219 160.753906 255.285156 160.753906 Z M 261.914062 164.417969 C 261.542969 167.9375 258.785156 170.3125 255.1875 170.3125 C 254.042969 170.3125 252.878906 170.066406 251.859375 169.546875 C 245.625 166.425781 248.929688 156.667969 253 150.328125 L 257.273438 150.328125 C 256.128906 152.085938 255.0625 154.367188 254.21875 156.570312 L 254.09375 156.917969 C 254.316406 156.890625 254.539062 156.867188 254.738281 156.867188 C 255.980469 156.816406 257.171875 157.015625 258.066406 157.386719 C 260.722656 158.550781 262.261719 161.375 261.914062 164.417969 " fill-opacity="1" fill-rule="nonzero"/><path fill="#29428d" d="M 270.730469 154.066406 C 269.164062 154.066406 267.871094 155.355469 267.871094 156.941406 L 267.871094 163.550781 C 267.871094 165.136719 269.164062 166.398438 270.730469 166.398438 L 271.722656 166.398438 C 273.3125 166.398438 274.601562 165.136719 274.601562 163.550781 L 274.601562 156.941406 C 274.601562 155.355469 273.3125 154.066406 271.722656 154.066406 Z M 278.5 156.941406 L 278.5 163.550781 C 278.5 167.292969 275.46875 170.3125 271.722656 170.3125 L 270.730469 170.3125 C 266.980469 170.3125 263.949219 167.292969 263.949219 163.550781 L 263.949219 156.941406 C 263.949219 153.203125 266.980469 150.179688 270.730469 150.179688 L 271.722656 150.179688 C 275.46875 150.179688 278.5 153.203125 278.5 156.941406 " fill-opacity="1" fill-rule="nonzero"/><path fill="#29428d" d="M 279.6875 149.632812 C 278.699219 149.632812 277.898438 148.835938 277.898438 147.847656 C 277.898438 146.863281 278.699219 146.0625 279.6875 146.0625 C 280.675781 146.0625 281.480469 146.863281 281.480469 147.847656 C 281.480469 148.835938 280.675781 149.632812 279.6875 149.632812 Z M 279.6875 144.632812 C 277.90625 144.632812 276.464844 146.074219 276.464844 147.847656 C 276.464844 149.625 277.90625 151.066406 279.6875 151.066406 C 281.46875 151.066406 282.914062 149.625 282.914062 147.847656 C 282.914062 146.074219 281.46875 144.632812 279.6875 144.632812 " fill-opacity="1" fill-rule="nonzero"/><g clip-path="url(#fa89af9c76)"><path fill="#38b6ff" d="M 273.308594 171.875 C 264.167969 180.097656 253.125 182.679688 247.976562 177.546875 C 246.503906 176.078125 245.664062 174.125 245.410156 171.875 L 239.558594 171.875 C 239.566406 175.171875 240.546875 178.027344 242.59375 180.070312 C 248.828125 186.289062 262.617188 182.621094 273.390625 171.875 L 273.308594 171.875 " fill-opacity="1" fill-rule="nonzero"/></g><path fill="#38b6ff" d="M 281.605469 141.164062 C 275.523438 135.097656 262.253906 138.441406 251.605469 148.582031 L 257.453125 148.582031 C 266.449219 140.867188 277.050781 138.550781 282.0625 143.550781 C 283.558594 145.042969 284.398438 147.03125 284.640625 149.324219 C 284.625 146.042969 283.648438 143.199219 281.605469 141.164062 " fill-opacity="1" fill-rule="nonzero"/><g clip-path="url(#b735a2024e)"><path fill="#38b6ff" d="M 273.390625 171.875 C 273.648438 171.621094 273.898438 171.359375 274.148438 171.101562 C 273.898438 171.339844 273.644531 171.574219 273.390625 171.804688 L 273.390625 171.875 " fill-opacity="1" fill-rule="nonzero"/></g><path fill="#38b6ff" d="M 285.539062 138.753906 C 288.574219 141.78125 289.492188 146.425781 288.550781 151.6875 L 293.152344 145.855469 L 294.378906 155.679688 C 297.296875 147.523438 296.84375 140.007812 292.371094 135.546875 C 284.453125 127.648438 266.949219 132.308594 253.269531 145.949219 C 252.945312 146.277344 252.625 146.605469 252.308594 146.933594 C 264.109375 135.722656 278.800781 132.03125 285.539062 138.753906 " fill-opacity="1" fill-rule="nonzero"/><g clip-path="url(#f09fe41235)"><path fill="#29428d" d="M 294.179688 169.027344 L 291.863281 150.476562 L 279.9375 165.597656 L 282.667969 165.300781 C 280.921875 167.882812 278.832031 170.421875 276.421875 172.824219 C 264.472656 184.746094 249.175781 188.816406 242.257812 181.917969 C 240.359375 180.023438 239.292969 177.496094 238.984375 174.585938 C 239.003906 178.753906 240.246094 182.363281 242.839844 184.945312 C 250.753906 192.84375 268.261719 188.183594 281.941406 174.542969 C 284.703125 171.789062 287.09375 168.878906 289.089844 165.921875 L 294.179688 169.027344 " fill-opacity="1" fill-rule="nonzero"/></g></svg>